<svg width="16" height="15" viewBox="0 0 16 15" fill="none" xmlns="http://www.w3.org/2000/svg">
<path d="M14.8502 2.16537V6.16537M14.8502 6.16537H10.8502M14.8502 6.16537L11.7635 3.25871C10.8439 2.33853 9.65017 1.74216 8.36215 1.55947C7.07413 1.37677 5.76162 1.61765 4.62241 2.2458C3.4832 2.87395 2.57901 3.85534 2.04609 5.04208C1.51317 6.22883 1.38039 7.55663 1.66776 8.8254C1.95513 10.0942 2.64708 11.2352 3.63935 12.0765C4.63161 12.9178 5.87043 13.4138 7.16912 13.4898C8.46781 13.5657 9.75601 13.2176 10.8396 12.4977C11.9232 11.7778 12.7435 10.7253 13.1768 9.4987" stroke="white" stroke-width="2" stroke-linecap="round" stroke-linejoin="round"/>
</svg>
