<svg width="13" height="12" viewBox="0 0 13 12" fill="none" xmlns="http://www.w3.org/2000/svg">
<path d="M12.4278 9C12.3055 9.3935 12.0825 9.754 11.7707 10.0525L10.5014 11.2675C10.1896 11.566 9.81246 11.7795 9.40139 11.8965V9.5C9.40139 9.224 9.63592 9 9.92372 9H12.4278ZM12.5359 2.5V8H9.92424C9.06031 8 8.35726 8.673 8.35726 9.5V12H2.61164C1.17158 12 0 10.8785 0 9.5V2.5C0 1.1215 1.17158 0 2.61164 0H9.92424C11.3643 0 12.5359 1.1215 12.5359 2.5ZM3.6563 8.75C3.6563 8.336 3.30529 8 2.87281 8C2.44032 8 2.08931 8.336 2.08931 8.75C2.08931 9.164 2.44032 9.5 2.87281 9.5C3.30529 9.5 3.6563 9.164 3.6563 8.75ZM3.6563 6C3.6563 5.586 3.30529 5.25 2.87281 5.25C2.44032 5.25 2.08931 5.586 2.08931 6C2.08931 6.414 2.44032 6.75 2.87281 6.75C3.30529 6.75 3.6563 6.414 3.6563 6ZM3.6563 3.25C3.6563 2.836 3.30529 2.5 2.87281 2.5C2.44032 2.5 2.08931 2.836 2.08931 3.25C2.08931 3.664 2.44032 4 2.87281 4C3.30529 4 3.6563 3.664 3.6563 3.25Z" fill="white"/>
</svg>
