<svg width="12" height="11" viewBox="0 0 12 11" fill="none" xmlns="http://www.w3.org/2000/svg">
<path d="M11.4778 8.25C11.3673 8.61071 11.1656 8.94117 10.8837 9.21479L9.73621 10.3285C9.4543 10.6022 9.11335 10.7979 8.74172 10.9051V8.70833C8.74172 8.45533 8.95374 8.25 9.21394 8.25H11.4778ZM11.5755 2.29167V7.33333H9.21441C8.43335 7.33333 7.79774 7.95025 7.79774 8.70833V11H2.6033C1.30138 11 0.242188 9.97196 0.242188 8.70833V2.29167C0.242188 1.02804 1.30138 0 2.6033 0H9.21441C10.5163 0 11.5755 1.02804 11.5755 2.29167ZM3.54774 8.02083C3.54774 7.64133 3.23041 7.33333 2.83941 7.33333C2.44841 7.33333 2.13108 7.64133 2.13108 8.02083C2.13108 8.40033 2.44841 8.70833 2.83941 8.70833C3.23041 8.70833 3.54774 8.40033 3.54774 8.02083ZM3.54774 5.5C3.54774 5.1205 3.23041 4.8125 2.83941 4.8125C2.44841 4.8125 2.13108 5.1205 2.13108 5.5C2.13108 5.8795 2.44841 6.1875 2.83941 6.1875C3.23041 6.1875 3.54774 5.8795 3.54774 5.5ZM3.54774 2.97917C3.54774 2.59967 3.23041 2.29167 2.83941 2.29167C2.44841 2.29167 2.13108 2.59967 2.13108 2.97917C2.13108 3.35867 2.44841 3.66667 2.83941 3.66667C3.23041 3.66667 3.54774 3.35867 3.54774 2.97917Z" fill="#EB6535"/>
</svg>
