<svg width="13" height="13" viewBox="0 0 13 13" fill="none" xmlns="http://www.w3.org/2000/svg">
<path d="M12.5066 8.06209L11.3901 7.41734C11.5028 6.80927 11.5028 6.18549 11.3901 5.57742L12.5066 4.93267C12.635 4.85928 12.6927 4.70726 12.6508 4.56573C12.3598 3.63267 11.8645 2.78872 11.2171 2.08631C11.1175 1.97885 10.955 1.95264 10.8292 2.02603L9.71266 2.67078C9.24351 2.26715 8.70359 1.95526 8.11912 1.75082V0.463934C8.11912 0.31716 8.0169 0.188734 7.87275 0.157282C6.91086 -0.0576365 5.92538 -0.0471527 5.01066 0.157282C4.86651 0.188734 4.76429 0.31716 4.76429 0.463934V1.75345C4.18244 1.9605 3.64252 2.2724 3.17075 2.6734L2.05684 2.02865C1.92842 1.95526 1.76854 1.97885 1.66894 2.08893C1.02157 2.78872 0.526205 3.63267 0.235279 4.56835C0.190722 4.70989 0.251005 4.8619 0.379431 4.93529L1.49596 5.58004C1.38326 6.18811 1.38326 6.81189 1.49596 7.41996L0.379431 8.06471C0.251005 8.1381 0.193343 8.29011 0.235279 8.43165C0.526205 9.36471 1.02157 10.2087 1.66894 10.9111C1.76854 11.0185 1.93104 11.0447 2.05684 10.9714L3.17337 10.3266C3.64252 10.7302 4.18244 11.0421 4.76692 11.2466V12.5361C4.76692 12.6828 4.86913 12.8113 5.01329 12.8427C5.97518 13.0576 6.96066 13.0472 7.87537 12.8427C8.01952 12.8113 8.12174 12.6828 8.12174 12.5361V11.2466C8.70359 11.0395 9.24351 10.7276 9.71528 10.3266L10.8318 10.9714C10.9602 11.0447 11.1201 11.0212 11.2197 10.9111C11.8671 10.2113 12.3625 9.36733 12.6534 8.43165C12.6927 8.28749 12.635 8.13548 12.5066 8.06209ZM6.44171 8.59415C5.28587 8.59415 4.34494 7.65322 4.34494 6.49738C4.34494 5.34154 5.28587 4.40061 6.44171 4.40061C7.59755 4.40061 8.53847 5.34154 8.53847 6.49738C8.53847 7.65322 7.59755 8.59415 6.44171 8.59415Z" fill="#E5E7EB"/>
</svg>
