<?xml version="1.0" encoding="UTF-8"?>
<svg version="1.1" xmlns="http://www.w3.org/2000/svg" width="512" height="512">
<path d="M0 0 C1.59067762 -0.00374026 3.18135341 -0.00834327 4.7720263 -0.01373065 C9.1276229 -0.0259296 13.4831425 -0.02570385 17.83875227 -0.02334189 C22.54237512 -0.02293294 27.24597355 -0.03398032 31.94958496 -0.04345703 C41.15899951 -0.0600508 50.36838845 -0.06556584 59.57781669 -0.06668179 C67.06557626 -0.067633 74.55332739 -0.07174695 82.04108429 -0.07808304 C103.28234758 -0.09569076 124.52359068 -0.1049226 145.76486132 -0.10342209 C147.4815757 -0.10330222 147.4815757 -0.10330222 149.23297119 -0.10317993 C150.37884894 -0.10309817 151.5247267 -0.10301641 152.70532802 -0.10293217 C171.27433887 -0.10211933 189.84326859 -0.12125776 208.41225597 -0.14945666 C227.49060881 -0.17819991 246.56892211 -0.19199618 265.64729714 -0.19026911 C276.35360151 -0.18960573 287.05982082 -0.1950756 297.76610565 -0.21662521 C306.88170003 -0.2348559 315.99717079 -0.23916879 325.11277553 -0.22560637 C329.76049671 -0.21908637 334.40798084 -0.21892448 339.05567932 -0.23631287 C343.31705235 -0.25209145 347.57800133 -0.24913143 351.83936432 -0.2317446 C353.37431163 -0.22868522 354.90929097 -0.23226676 356.44420049 -0.24346475 C374.42879778 -0.36589806 389.65302211 4.61392915 402.581604 17.30648804 C411.50837422 26.54525599 417.4634689 39.2850408 417.48256302 52.24041939 C417.48640416 53.2224251 417.49024531 54.20443081 417.49420285 55.21619427 C417.49333637 56.28748322 417.49246989 57.35877217 417.49157715 58.46252441 C417.49603383 60.17850808 417.49603383 60.17850808 417.50058055 61.92915809 C417.50926792 65.7712507 417.51077584 69.61331216 417.51226807 73.45541382 C417.51635882 76.2067432 417.52190038 78.95806931 417.52731323 81.70939636 C417.54088494 89.1910036 417.54691962 96.67260547 417.55132389 104.15422297 C417.5540886 108.82836044 417.55832641 113.50249585 417.56282806 118.17663193 C417.57501983 131.1249866 417.58531892 144.07333962 417.58870316 157.02169991 C417.58892272 157.85015588 417.58914229 158.67861185 417.58936851 159.53217255 C417.58958678 160.36258239 417.58980506 161.19299222 417.59002995 162.04856598 C417.59047342 163.73121969 417.59091998 165.4138734 417.59136963 167.0965271 C417.59159106 167.93117693 417.59181249 168.76582676 417.59204063 169.625769 C417.59598661 183.14278493 417.61343494 196.65974688 417.63672915 210.17674197 C417.66046713 224.06367792 417.67290614 237.95058681 417.67407107 251.83754337 C417.67498652 259.63078112 417.68070594 267.42394856 417.69889069 275.2171669 C417.71432481 281.85486633 417.71939271 288.49247373 417.71115258 295.13018771 C417.70725754 298.51389155 417.7097658 301.89726023 417.72220993 305.28096581 C417.73493611 308.95761037 417.72904833 312.63378321 417.71862793 316.3104248 C417.73071254 317.89728173 417.73071254 317.89728173 417.74304128 319.51619637 C417.64241197 334.75070709 412.12526051 348.10342652 401.56207275 359.08773804 C400.83246338 359.80703491 400.102854 360.52633179 399.35113525 361.26742554 C398.50422119 362.12980835 398.50422119 362.12980835 397.64019775 363.00961304 C384.73024624 375.16386007 367.2820868 376.73100102 350.41143799 376.64837646 C348.85015506 376.65184135 347.28887459 376.65661144 345.72759914 376.6625582 C341.47639584 376.6749839 337.22539676 376.66893664 332.9741931 376.65959954 C328.37425124 376.65277452 323.774343 376.6633073 319.17440796 376.67153931 C310.17855209 376.68484217 301.18277153 376.68201431 292.18691278 376.67330138 C284.87233378 376.66651164 277.55777582 376.66561369 270.24319458 376.66887283 C269.20004701 376.66933253 268.15689944 376.66979223 267.08214134 376.67026586 C264.96265705 376.67122509 262.84317276 376.67219773 260.72368848 376.67318363 C240.87394565 376.68172743 221.02424446 376.67191926 201.17450845 376.65578254 C184.16207415 376.64238028 167.14970126 376.64470866 150.13726807 376.65853882 C130.35598395 376.67461249 110.57473628 376.68090355 90.79344654 376.67170203 C88.68198968 376.67074643 86.5705328 376.66980332 84.45907593 376.66887283 C83.42034204 376.66841001 82.38160816 376.66794718 81.31139749 376.66747033 C74.0100898 376.6648858 66.70880532 376.66923983 59.40750122 376.67631149 C50.50323428 376.68474657 41.59904662 376.68240425 32.69478869 376.66646926 C28.15631547 376.65861352 23.6179742 376.65544868 19.07950211 376.66541672 C14.91701827 376.67442033 10.75478748 376.6693385 6.59232628 376.65348406 C5.09452694 376.65016007 3.59670577 376.65177597 2.0989207 376.65911143 C-17.23795037 376.74647676 -33.97680289 372.78552969 -48.24261475 358.93930054 C-60.23284819 345.62546989 -63.97436948 330.17672639 -63.90956116 312.67469788 C-63.9133867 311.56036733 -63.91721225 310.44603678 -63.92115372 309.29793864 C-63.93141051 305.59199917 -63.92750551 301.88621676 -63.92352295 298.18026733 C-63.92787349 295.51173394 -63.93299394 292.84321177 -63.93901062 290.17468262 C-63.95171676 283.69506698 -63.95355641 277.21549287 -63.95121036 270.73586687 C-63.94942236 265.46498234 -63.95118713 260.19411034 -63.9554348 254.92322731 C-63.95602999 254.1710862 -63.95662518 253.41894509 -63.9572384 252.64401183 C-63.95845024 251.11568794 -63.95966438 249.58736405 -63.96088078 248.05904017 C-63.9717407 233.74747777 -63.96960124 219.43593898 -63.96349593 205.12437526 C-63.95832882 192.05595296 -63.96957953 178.98760525 -63.98859415 165.9191977 C-64.00800593 152.47388727 -64.01622266 139.02861206 -64.0124709 125.58328754 C-64.01056383 118.04547184 -64.01299796 110.5077196 -64.02718544 102.96991539 C-64.03914293 96.55239215 -64.04045551 90.13497141 -64.02839527 83.71744665 C-64.02253686 80.44880402 -64.02297283 77.1803856 -64.03339767 73.91174889 C-64.09667872 52.51985663 -63.5521632 33.74123453 -47.85198975 17.44320679 C-47.1249585 16.72519897 -46.39792725 16.00719116 -45.64886475 15.26742554 C-45.1074585 14.70410522 -44.56605225 14.14078491 -44.00823975 13.56039429 C-31.76666451 1.84434122 -16.10036073 -0.03595239 0 0 Z M-21.64886475 46.26742554 C-25.26377588 51.81705543 -25.07620462 56.8616953 -25.04327393 63.2612915 C-25.04936503 64.37149977 -25.05545613 65.48170803 -25.06173182 66.62555897 C-25.07838643 70.34726809 -25.07358233 74.06863599 -25.06878662 77.79037476 C-25.07612551 80.45806047 -25.08461838 83.12572058 -25.0944519 85.793396 C-25.11549415 92.28840366 -25.12004745 98.78332203 -25.11826402 105.27835976 C-25.11695578 110.55847975 -25.12076367 115.83857192 -25.12818909 121.11868668 C-25.13028831 122.64031032 -25.13238591 124.16193398 -25.13448191 125.68355763 C-25.13552543 126.44094181 -25.13656896 127.19832598 -25.13764411 127.97866119 C-25.15654162 142.29908788 -25.15549779 156.61946333 -25.14867479 170.93989731 C-25.14309968 184.0353744 -25.16392417 197.13065583 -25.19703525 210.2260872 C-25.23078324 223.67800025 -25.24593921 237.12981961 -25.24131823 250.58177578 C-25.23907465 258.13181808 -25.24430022 265.68167954 -25.26921082 273.23168564 C-25.29023833 279.65943887 -25.29380176 286.08691212 -25.27491122 292.51467691 C-25.26576195 295.79280776 -25.26730285 299.07030924 -25.28526688 302.34841919 C-25.3034169 305.90595404 -25.29073934 309.4620997 -25.27032471 313.01959229 C-25.28284256 314.05053477 -25.2953604 315.08147726 -25.30825758 316.14366043 C-25.21449508 323.76605717 -23.4675105 328.44038215 -18.07358277 333.84617174 C-11.75157067 338.74207397 -4.00620169 337.957186 3.58517456 337.8888855 C5.14285993 337.89321748 6.70054048 337.89973618 8.25820863 337.90824556 C12.52714975 337.92521306 16.79550299 337.91107286 21.06441307 337.89173079 C25.67249672 337.87629033 30.28050897 337.88970905 34.88859558 337.8994751 C43.91072137 337.91399676 52.93262202 337.90177299 61.95472647 337.88036186 C72.46006488 337.85634598 82.96535176 337.85806655 93.47071151 337.86066777 C112.21280056 337.86435742 130.95478354 337.84353579 149.69683838 337.80941772 C167.88664429 337.77631724 186.0763389 337.7621611 204.26617432 337.7684021 C224.07298167 337.77516446 243.8797424 337.77271096 263.68654287 337.7530427 C265.25719933 337.75148347 265.25719933 337.75148347 266.85958623 337.74989274 C268.96267096 337.74780184 271.06575567 337.74569087 273.16884036 337.74355957 C280.49336887 337.73666156 287.81788302 337.73599505 295.14241409 337.73744202 C304.06573099 337.73888095 312.98895709 337.72920471 321.91224386 337.70549566 C326.46587924 337.69362731 331.01938797 337.68651612 335.5730381 337.69233322 C339.74028975 337.69749949 343.90727368 337.68883657 348.07447951 337.66905862 C349.58307808 337.66431332 351.09170268 337.6646259 352.60029741 337.67046899 C354.64966591 337.67764046 356.69814484 337.66639027 358.74744606 337.65053558 C359.88606767 337.64896438 361.02468929 337.64739318 362.19781458 337.64577436 C368.32677533 336.91039558 372.44355228 333.91428096 376.35113525 329.26742554 C379.62059238 323.24233423 379.77666364 318.07905747 379.73208618 311.30516052 C379.73676615 310.21043204 379.74144613 309.11570356 379.74626791 307.98780149 C379.75822104 304.32445675 379.74875907 300.66148586 379.73931885 296.99813843 C379.74338441 294.36972333 379.74872621 291.74130993 379.75524902 289.11289978 C379.76857607 282.71761108 379.76571311 276.32242811 379.7570111 269.9271353 C379.75023031 264.72808645 379.74931955 259.52906719 379.75258255 254.33001518 C379.75304225 253.58947658 379.75350195 252.84893798 379.75397558 252.08595882 C379.75493478 250.5814594 379.75590742 249.07695999 379.75689335 247.57246058 C379.76544438 233.47043841 379.75561793 219.36847477 379.73949225 205.2664622 C379.7260921 193.17373641 379.72841521 181.08109703 379.74224854 168.9883728 C379.75831421 154.93765845 379.76461752 140.88699539 379.75541174 126.83627313 C379.75445612 125.33706598 379.75351301 123.83785882 379.75258255 122.33865166 C379.75188831 121.23226525 379.75188831 121.23226525 379.75118005 120.10352759 C379.74859291 114.91294467 379.75295524 109.72239436 379.76002121 104.53181648 C379.76932872 97.54109046 379.76267266 90.55053015 379.74533844 83.55982018 C379.74137232 80.99437353 379.74250976 78.42891316 379.74912643 75.86347198 C379.75732676 72.36102084 379.74703774 68.85909208 379.73208618 65.35667419 C379.73877835 64.34197762 379.74547051 63.32728105 379.75236547 62.28183609 C379.69720698 55.61788758 379.04459516 49.64566338 374.737854 44.24398804 C374.17711182 43.79797241 373.61636963 43.35195679 373.03863525 42.89242554 C372.48562744 42.43094116 371.93261963 41.96945679 371.362854 41.49398804 C366.70501499 38.65406289 362.1837019 38.01708503 356.80712223 38.01294994 C354.84671831 38.00420165 354.84671831 38.00420165 352.84671026 37.99527663 C351.40320289 37.99890954 349.95969599 38.00273389 348.51618958 38.00672913 C346.97744767 38.00370798 345.43870727 37.99981869 343.89996952 37.99513656 C339.674227 37.9848431 335.4485692 37.98704181 331.22281969 37.99131715 C326.66445712 37.99378191 322.10611508 37.98477335 317.54776001 37.97727966 C308.61867932 37.96452392 299.6896287 37.96274004 290.76054043 37.96507993 C283.50387451 37.96686218 276.24721773 37.96511544 268.9905529 37.96085548 C267.95817716 37.9602603 266.92580142 37.95966511 265.86214156 37.95905188 C263.76494988 37.95784014 261.6677582 37.95662601 259.57056653 37.9554095 C239.898963 37.9445307 220.22737661 37.94669814 200.55577212 37.95279435 C182.55481801 37.95796446 164.553918 37.94670618 146.55297459 37.92769613 C128.07365292 37.90833033 109.59435687 37.90005948 91.11502498 37.90381938 C80.73864298 37.90573326 70.36230704 37.90322571 59.9859333 37.88910484 C51.15300893 37.87720614 42.32015896 37.87576921 33.48723359 37.88789501 C28.98005824 37.89379417 24.4730191 37.89485452 19.96585274 37.88289261 C15.83981211 37.87206936 11.71402199 37.87509458 7.58799326 37.88915429 C6.09546049 37.89181105 4.60290831 37.88940407 3.11039454 37.88141843 C-7.24605412 37.82985318 -14.61181991 37.86206643 -21.64886475 46.26742554 Z " fill="#FFFFFF" transform="translate(78.64886474609375,64.73257446289063)"/>
<path d="M0 0 C13.9699385 11.92187653 21.29589719 26.31336269 25.40625 43.97265625 C25.40625 48.92265625 25.40625 53.87265625 25.40625 58.97265625 C12.86625 58.97265625 0.32625 58.97265625 -12.59375 58.97265625 C-13.58375 53.03265625 -13.58375 53.03265625 -14.59375 46.97265625 C-18.02168707 37.04910593 -23.59529467 30.4453596 -32.84375 25.59765625 C-41.16074213 21.6453666 -52.23746899 21.37815017 -60.90625 24.41015625 C-70.36785514 28.90441869 -76.96971175 36.21303696 -80.59375 45.97265625 C-81.76447716 49.65599436 -81.74762647 53.17991387 -81.78662109 57.02929688 C-81.79479858 57.73236969 -81.80297607 58.4354425 -81.81140137 59.15982056 C-81.8361746 61.48284071 -81.85275677 63.80579976 -81.8671875 66.12890625 C-81.87517302 67.32555153 -81.87517302 67.32555153 -81.88331985 68.54637146 C-81.91002528 72.77471961 -81.9294025 77.00303861 -81.94384766 81.23144531 C-81.95714343 84.71153298 -81.98491805 88.19102824 -82.02587891 91.67089844 C-82.07553055 95.89015534 -82.1000087 100.10887842 -82.10707474 104.32841492 C-82.11373658 105.92622206 -82.12882434 107.52401968 -82.15296555 109.12165833 C-82.32427349 121.15160922 -80.96491018 132.39747346 -72.24609375 141.515625 C-65.02043259 147.8871891 -55.81458878 151.70505563 -46.0859375 151.32421875 C-37.77416211 150.15171125 -30.63618297 147.85178022 -24.59375 141.97265625 C-23.93375 141.97265625 -23.27375 141.97265625 -22.59375 141.97265625 C-22.2225 141.16828125 -22.2225 141.16828125 -21.84375 140.34765625 C-20.59375 137.97265625 -20.59375 137.97265625 -18.65625 135.34765625 C-14.51682807 128.57405672 -13.57457759 121.81927699 -12.59375 113.97265625 C-0.05375 113.97265625 12.48625 113.97265625 25.40625 113.97265625 C25.40625 135.9361337 20.6050957 152.77088335 5.04296875 168.39453125 C4.17285156 169.2453125 3.30273438 170.09609375 2.40625 170.97265625 C1.77332031 171.6378125 1.14039063 172.30296875 0.48828125 172.98828125 C-13.02855585 186.23657192 -32.4848441 190.28515625 -50.63867188 190.28515625 C-69.61659173 190.02273373 -87.06920642 182.35266272 -100.59375 168.97265625 C-116.93685288 150.67993432 -121.73654189 131.11792918 -121.796875 107.00390625 C-121.79970238 106.23686874 -121.80252975 105.46983124 -121.80544281 104.67955017 C-121.82037712 100.61513941 -121.82964125 96.55076357 -121.83398438 92.48632812 C-121.83944135 88.33579465 -121.86342691 84.18559379 -121.89195633 80.03516388 C-121.91079386 76.80219663 -121.91579951 73.56930589 -121.91732025 70.33628845 C-121.92030315 68.80881444 -121.92817917 67.2813403 -121.94150543 65.75392151 C-122.1267132 42.88239115 -116.89242827 22.3719349 -100.87890625 5.2890625 C-73.28862006 -22.67852675 -30.80042938 -24.074432 0 0 Z " fill="#FFFFFF" transform="translate(211.59375,166.02734375)"/>
<path d="M0 0 C1.34337048 1.15509508 2.677294 2.32129828 4 3.5 C4.66 4.00789063 5.32 4.51578125 6 5.0390625 C19.04161639 15.38065675 28.01290044 33.1848668 30 49.5 C30 53.79 30 58.08 30 62.5 C17.46 62.5 4.92 62.5 -8 62.5 C-8.99 57.88 -9.98 53.26 -11 48.5 C-15.09234933 38.67836161 -20.49223118 33.24673571 -30 28.5 C-38.91294116 24.94694998 -48.75851676 25.18365464 -57.625 28.75 C-66.63687547 32.83942248 -72.13553838 39.46874614 -75.8125 48.5625 C-78.80067965 56.54908923 -78.16043485 65.64745634 -78.16796875 74.01953125 C-78.17129715 75.31388596 -78.17462555 76.60824066 -78.17805481 77.94181824 C-78.18401366 80.67256505 -78.18589808 83.40328036 -78.18530273 86.1340332 C-78.18520131 89.60342899 -78.19884765 93.07261923 -78.21607494 96.54196644 C-78.22998233 99.88865708 -78.22928658 103.23531219 -78.23046875 106.58203125 C-78.23765427 107.81258743 -78.24483978 109.04314362 -78.25224304 110.31098938 C-78.21669597 123.88211738 -76.57070381 135.31688997 -67.1953125 145.60546875 C-59.87749942 151.92066331 -51.00195051 154.86922803 -41.45703125 154.7109375 C-31.7043732 153.87366638 -23.30101994 149.33142755 -16.6875 142.1875 C-10.70409409 134.59636452 -9.61997613 127.21985679 -8 117.5 C4.54 117.5 17.08 117.5 30 117.5 C30 138.37035316 25.14760642 154.76149808 11 170.5 C10.22269531 171.41652344 10.22269531 171.41652344 9.4296875 172.3515625 C-1.40714424 184.27752306 -18.67332914 192.37924984 -34.63305664 193.72143555 C-56.5079224 194.63232182 -75.54940478 190.60483771 -92.54296875 175.80078125 C-106.28439302 162.93321544 -116.38947799 145.09975264 -117.14044189 125.91149902 C-117.15234847 124.56798753 -117.15894277 123.22442184 -117.16113281 121.88085938 C-117.16609772 121.14169281 -117.17106262 120.40252625 -117.17617798 119.64096069 C-117.19071538 117.20854742 -117.1975898 114.77619949 -117.203125 112.34375 C-117.20595238 111.50618668 -117.20877975 110.66862335 -117.21169281 109.80567932 C-117.22665638 105.36752002 -117.23590194 100.92939295 -117.24023438 96.49121094 C-117.24569466 91.94360069 -117.26967886 87.39629354 -117.29820633 82.84877777 C-117.31698965 79.32079254 -117.32204672 75.79287778 -117.32357025 72.2648468 C-117.32656536 70.59058487 -117.33448523 68.91632322 -117.34775543 67.24211121 C-117.52279683 43.44744429 -111.45961317 24.42746858 -94.8125 6.8125 C-69.97916252 -17.165695 -27.97878407 -21.34463939 0 0 Z " fill="#FFFFFF" transform="translate(391,162.5)"/>
</svg>
