<svg width="8" height="15" viewBox="0 0 8 15" fill="none" xmlns="http://www.w3.org/2000/svg">
<path d="M7.6587 14.2753C7.6587 14.2758 7.65806 14.2761 7.65764 14.2758L3.679 11.024C3.64894 10.9994 3.6134 10.9885 3.57514 10.9885H2.25222C1.51969 10.9885 0.923828 10.3926 0.923828 9.66008V5.31959C0.923828 4.58706 1.51969 3.9912 2.25222 3.9912H3.57514C3.6134 3.9912 3.64894 3.97754 3.67627 3.95567L7.6587 0.7249C7.7653 0.640167 7.92383 0.713966 7.92383 0.850632V14.1482C7.92383 14.2844 7.76636 14.3609 7.65977 14.2748C7.65935 14.2744 7.6587 14.2747 7.6587 14.2753Z" fill="#FFFFFF"/>
</svg>
